<svg class="hide" xmlns="http://www.w3.org/2000/svg" width="0" height="0" preserveAspectRatio="none"><defs><style/></defs><symbol id="star" viewBox="0 0 17.177 16.336"><path d="M4.831 10.25L1.075 6.589l5.192-.754L8.589 1.13l2.321 4.705 5.192.754-3.756 3.661.886 5.172-4.643-2.442-4.644 2.442z"/><path fill="#1D96DA" d="M8.589 2.26l1.756 3.56.233.472.52.076 3.929.571-2.843 2.771-.376.367.089.518.671 3.914-3.514-1.849-.465-.245-.465.245-3.515 1.848.671-3.914.089-.518-.377-.367-2.843-2.771 3.929-.571.52-.076.233-.471 1.758-3.56m0-2.26L5.935 5.378 0 6.24l4.294 4.185-1.013 5.911 5.308-2.791 5.307 2.791-1.013-5.911 4.294-4.185-5.935-.862L8.589 0z"/></symbol></svg>